<svg width="102" height="24" viewBox="0 0 102 24" fill="none" xmlns="http://www.w3.org/2000/svg">
<path d="M19 2.9668H5C3.89543 2.9668 3 3.8522 3 4.9444V18.7876C3 19.8798 3.89543 20.7652 5 20.7652H19C20.1046 20.7652 21 19.8798 21 18.7876V4.9444C21 3.8522 20.1046 2.9668 19 2.9668Z" stroke="#151515" stroke-width="2" stroke-linecap="round" stroke-linejoin="round"/>
<path d="M21 14.8317L16 9.8877L5 20.7645" stroke="#151515" stroke-width="2" stroke-linecap="round" stroke-linejoin="round"/>
<path d="M8.5 9.88828C9.32843 9.88828 10 9.22422 10 8.40508C10 7.58593 9.32843 6.92188 8.5 6.92188C7.67157 6.92188 7 7.58593 7 8.40508C7 9.22422 7.67157 9.88828 8.5 9.88828Z" stroke="#151515" stroke-width="2" stroke-linecap="round" stroke-linejoin="round"/>
<path d="M41.392 15.8652C41.312 15.8652 41.248 15.8412 41.2 15.7932C41.152 15.7452 41.128 15.6812 41.128 15.6012V7.74123C41.128 7.65323 41.152 7.58523 41.2 7.53723C41.248 7.48923 41.312 7.46523 41.392 7.46523H44.308C44.868 7.46523 45.352 7.56123 45.76 7.75323C46.176 7.93723 46.496 8.21323 46.72 8.58123C46.952 8.94923 47.068 9.40523 47.068 9.94923C47.068 10.4932 46.952 10.9492 46.72 11.3172C46.496 11.6852 46.176 11.9652 45.76 12.1572C45.352 12.3412 44.868 12.4332 44.308 12.4332H41.884V15.6012C41.884 15.6812 41.86 15.7452 41.812 15.7932C41.764 15.8412 41.696 15.8652 41.608 15.8652H41.392ZM41.884 11.7132H44.248C44.944 11.7132 45.46 11.5612 45.796 11.2572C46.14 10.9532 46.312 10.5172 46.312 9.94923C46.312 9.38123 46.14 8.94523 45.796 8.64123C45.46 8.33723 44.944 8.18523 44.248 8.18523H41.884V11.7132ZM48.9272 15.8652C48.8472 15.8652 48.7832 15.8412 48.7352 15.7932C48.6872 15.7452 48.6632 15.6812 48.6632 15.6012V7.74123C48.6632 7.65323 48.6872 7.58523 48.7352 7.53723C48.7832 7.48923 48.8472 7.46523 48.9272 7.46523H51.4832C52.3312 7.46523 52.9952 7.58923 53.4752 7.83723C53.9552 8.08523 54.2952 8.45323 54.4952 8.94123C54.7032 9.42123 54.8112 10.0092 54.8192 10.7052C54.8272 11.0652 54.8312 11.3852 54.8312 11.6652C54.8312 11.9372 54.8272 12.2532 54.8192 12.6132C54.8032 13.3492 54.6952 13.9572 54.4952 14.4372C54.2952 14.9172 53.9592 15.2772 53.4872 15.5172C53.0152 15.7492 52.3672 15.8652 51.5432 15.8652H48.9272ZM49.4192 15.1452H51.4832C52.1232 15.1452 52.6272 15.0612 52.9952 14.8932C53.3712 14.7172 53.6392 14.4412 53.7992 14.0652C53.9672 13.6812 54.0552 13.1772 54.0632 12.5532C54.0712 12.3132 54.0752 12.1052 54.0752 11.9292C54.0752 11.7452 54.0752 11.5652 54.0752 11.3892C54.0752 11.2132 54.0712 11.0052 54.0632 10.7652C54.0472 9.88523 53.8432 9.23723 53.4512 8.82123C53.0592 8.39723 52.3832 8.18523 51.4232 8.18523H49.4192V15.1452ZM57.0483 15.8652C56.9683 15.8652 56.9043 15.8412 56.8563 15.7932C56.8083 15.7452 56.7843 15.6812 56.7843 15.6012V7.74123C56.7843 7.65323 56.8083 7.58523 56.8563 7.53723C56.9043 7.48923 56.9683 7.46523 57.0483 7.46523H61.6803C61.7683 7.46523 61.8363 7.48923 61.8843 7.53723C61.9323 7.58523 61.9563 7.65323 61.9563 7.74123V7.92123C61.9563 8.00123 61.9323 8.06523 61.8843 8.11323C61.8363 8.16123 61.7683 8.18523 61.6803 8.18523H57.5403V11.4132H61.4403C61.5283 11.4132 61.5963 11.4372 61.6443 11.4852C61.6923 11.5332 61.7162 11.6012 61.7162 11.6892V11.8692C61.7162 11.9492 61.6923 12.0132 61.6443 12.0612C61.5963 12.1092 61.5283 12.1332 61.4403 12.1332H57.5403V15.6012C57.5403 15.6812 57.5163 15.7452 57.4683 15.7932C57.4203 15.8412 57.3523 15.8652 57.2643 15.8652H57.0483ZM68.7264 15.8652C68.6224 15.8652 68.5384 15.8412 68.4744 15.7932C68.4104 15.7452 68.3584 15.6732 68.3184 15.5772L65.5344 7.83723C65.5184 7.78923 65.5104 7.74523 65.5104 7.70523C65.5104 7.64123 65.5344 7.58523 65.5824 7.53723C65.6304 7.48923 65.6864 7.46523 65.7504 7.46523H66.0024C66.0824 7.46523 66.1424 7.48923 66.1824 7.53723C66.2304 7.57723 66.2584 7.61323 66.2664 7.64523L68.8944 14.9892L71.5224 7.64523C71.5384 7.61323 71.5664 7.57723 71.6064 7.53723C71.6464 7.48923 71.7064 7.46523 71.7864 7.46523H72.0384C72.1024 7.46523 72.1584 7.48923 72.2064 7.53723C72.2544 7.58523 72.2784 7.64123 72.2784 7.70523C72.2784 7.74523 72.2704 7.78923 72.2544 7.83723L69.4704 15.5772C69.4384 15.6732 69.3904 15.7452 69.3264 15.7932C69.2624 15.8412 69.1744 15.8652 69.0624 15.8652H68.7264ZM73.8141 15.8652C73.7341 15.8652 73.6701 15.8412 73.6221 15.7932C73.5741 15.7452 73.5501 15.6812 73.5501 15.6012V9.88923C73.5501 9.80923 73.5741 9.74523 73.6221 9.69723C73.6701 9.64923 73.7341 9.62523 73.8141 9.62523H74.0181C74.0981 9.62523 74.1621 9.64923 74.2101 9.69723C74.2581 9.74523 74.2821 9.80923 74.2821 9.88923V15.6012C74.2821 15.6812 74.2581 15.7452 74.2101 15.7932C74.1621 15.8412 74.0981 15.8652 74.0181 15.8652H73.8141ZM73.6821 8.34123C73.6021 8.34123 73.5381 8.31723 73.4901 8.26923C73.4421 8.22123 73.4181 8.15723 73.4181 8.07723V7.62123C73.4181 7.54123 73.4421 7.47723 73.4901 7.42923C73.5381 7.37323 73.6021 7.34523 73.6821 7.34523H74.1381C74.2181 7.34523 74.2821 7.37323 74.3301 7.42923C74.3861 7.47723 74.4141 7.54123 74.4141 7.62123V8.07723C74.4141 8.15723 74.3861 8.22123 74.3301 8.26923C74.2821 8.31723 74.2181 8.34123 74.1381 8.34123H73.6821ZM78.538 15.9852C77.762 15.9852 77.146 15.7332 76.69 15.2292C76.234 14.7172 75.974 14.0492 75.91 13.2252C75.902 13.1052 75.898 12.9452 75.898 12.7452C75.898 12.5452 75.902 12.3852 75.91 12.2652C75.95 11.7212 76.078 11.2412 76.294 10.8252C76.51 10.4092 76.806 10.0852 77.182 9.85323C77.566 9.62123 78.018 9.50523 78.538 9.50523C79.098 9.50523 79.574 9.62923 79.966 9.87723C80.358 10.1252 80.658 10.4812 80.866 10.9452C81.082 11.4092 81.19 11.9612 81.19 12.6012V12.7812C81.19 12.8612 81.162 12.9252 81.106 12.9732C81.058 13.0212 80.994 13.0452 80.914 13.0452H76.642C76.642 13.0452 76.642 13.0612 76.642 13.0932C76.642 13.1252 76.642 13.1492 76.642 13.1652C76.658 13.5252 76.742 13.8692 76.894 14.1972C77.046 14.5172 77.262 14.7812 77.542 14.9892C77.822 15.1892 78.154 15.2892 78.538 15.2892C78.882 15.2892 79.166 15.2372 79.39 15.1332C79.622 15.0292 79.806 14.9172 79.942 14.7972C80.078 14.6692 80.166 14.5732 80.206 14.5092C80.278 14.4052 80.334 14.3452 80.374 14.3292C80.414 14.3052 80.478 14.2932 80.566 14.2932H80.758C80.83 14.2932 80.89 14.3172 80.938 14.3652C80.994 14.4052 81.018 14.4612 81.01 14.5332C81.002 14.6452 80.938 14.7852 80.818 14.9532C80.706 15.1132 80.542 15.2732 80.326 15.4332C80.118 15.5932 79.862 15.7252 79.558 15.8292C79.254 15.9332 78.914 15.9852 78.538 15.9852ZM76.642 12.3732H80.458V12.3252C80.458 11.9252 80.382 11.5652 80.23 11.2452C80.078 10.9252 79.858 10.6732 79.57 10.4892C79.282 10.2972 78.938 10.2012 78.538 10.2012C78.138 10.2012 77.794 10.2972 77.506 10.4892C77.226 10.6732 77.01 10.9252 76.858 11.2452C76.714 11.5652 76.642 11.9252 76.642 12.3252V12.3732ZM84.2404 15.8652C84.1364 15.8652 84.0564 15.8412 84.0004 15.7932C83.9444 15.7452 83.8964 15.6692 83.8564 15.5652L82.1644 9.99723C82.1484 9.94923 82.1404 9.90523 82.1404 9.86523C82.1404 9.80123 82.1644 9.74523 82.2124 9.69723C82.2604 9.64923 82.3164 9.62523 82.3804 9.62523H82.6084C82.6884 9.62523 82.7484 9.64923 82.7884 9.69723C82.8364 9.73723 82.8644 9.77323 82.8724 9.80523L84.3484 14.7972L85.9204 9.86523C85.9364 9.81723 85.9684 9.76523 86.0164 9.70923C86.0644 9.65323 86.1404 9.62523 86.2444 9.62523H86.4844C86.5884 9.62523 86.6644 9.65323 86.7124 9.70923C86.7684 9.76523 86.8004 9.81723 86.8084 9.86523L88.3804 14.7972L89.8564 9.80523C89.8644 9.77323 89.8884 9.73723 89.9284 9.69723C89.9764 9.64923 90.0404 9.62523 90.1204 9.62523H90.3484C90.4124 9.62523 90.4684 9.64923 90.5164 9.69723C90.5644 9.74523 90.5884 9.80123 90.5884 9.86523C90.5884 9.90523 90.5804 9.94923 90.5644 9.99723L88.8724 15.5652C88.8404 15.6692 88.7964 15.7452 88.7404 15.7932C88.6844 15.8412 88.6004 15.8652 88.4884 15.8652H88.2844C88.1804 15.8652 88.0924 15.8412 88.0204 15.7932C87.9564 15.7452 87.9084 15.6692 87.8764 15.5652L86.3644 10.8372L84.8524 15.5652C84.8204 15.6692 84.7724 15.7452 84.7084 15.7932C84.6444 15.8412 84.5564 15.8652 84.4444 15.8652H84.2404ZM94.2177 15.9852C93.4417 15.9852 92.8257 15.7332 92.3697 15.2292C91.9137 14.7172 91.6537 14.0492 91.5897 13.2252C91.5817 13.1052 91.5777 12.9452 91.5777 12.7452C91.5777 12.5452 91.5817 12.3852 91.5897 12.2652C91.6297 11.7212 91.7577 11.2412 91.9737 10.8252C92.1897 10.4092 92.4857 10.0852 92.8617 9.85323C93.2457 9.62123 93.6977 9.50523 94.2177 9.50523C94.7777 9.50523 95.2537 9.62923 95.6457 9.87723C96.0377 10.1252 96.3377 10.4812 96.5457 10.9452C96.7617 11.4092 96.8697 11.9612 96.8697 12.6012V12.7812C96.8697 12.8612 96.8417 12.9252 96.7857 12.9732C96.7377 13.0212 96.6737 13.0452 96.5937 13.0452H92.3217C92.3217 13.0452 92.3217 13.0612 92.3217 13.0932C92.3217 13.1252 92.3217 13.1492 92.3217 13.1652C92.3377 13.5252 92.4217 13.8692 92.5737 14.1972C92.7257 14.5172 92.9417 14.7812 93.2217 14.9892C93.5017 15.1892 93.8337 15.2892 94.2177 15.2892C94.5617 15.2892 94.8457 15.2372 95.0697 15.1332C95.3017 15.0292 95.4857 14.9172 95.6217 14.7972C95.7577 14.6692 95.8457 14.5732 95.8857 14.5092C95.9577 14.4052 96.0137 14.3452 96.0537 14.3292C96.0937 14.3052 96.1577 14.2932 96.2457 14.2932H96.4377C96.5097 14.2932 96.5697 14.3172 96.6177 14.3652C96.6737 14.4052 96.6977 14.4612 96.6897 14.5332C96.6817 14.6452 96.6177 14.7852 96.4977 14.9532C96.3857 15.1132 96.2217 15.2732 96.0057 15.4332C95.7977 15.5932 95.5417 15.7252 95.2377 15.8292C94.9337 15.9332 94.5937 15.9852 94.2177 15.9852ZM92.3217 12.3732H96.1377V12.3252C96.1377 11.9252 96.0617 11.5652 95.9097 11.2452C95.7577 10.9252 95.5377 10.6732 95.2497 10.4892C94.9617 10.2972 94.6177 10.2012 94.2177 10.2012C93.8177 10.2012 93.4737 10.2972 93.1857 10.4892C92.9057 10.6732 92.6897 10.9252 92.5377 11.2452C92.3937 11.5652 92.3217 11.9252 92.3217 12.3252V12.3732ZM98.7165 15.8652C98.6365 15.8652 98.5725 15.8412 98.5245 15.7932C98.4765 15.7452 98.4525 15.6812 98.4525 15.6012V9.90123C98.4525 9.82123 98.4765 9.75723 98.5245 9.70923C98.5725 9.65323 98.6365 9.62523 98.7165 9.62523H98.9085C98.9885 9.62523 99.0525 9.65323 99.1005 9.70923C99.1565 9.75723 99.1845 9.82123 99.1845 9.90123V10.4532C99.3285 10.1732 99.5365 9.96523 99.8085 9.82923C100.08 9.69323 100.416 9.62523 100.816 9.62523H101.26C101.34 9.62523 101.404 9.64923 101.452 9.69723C101.5 9.74523 101.524 9.80923 101.524 9.88923V10.0572C101.524 10.1372 101.5 10.2012 101.452 10.2492C101.404 10.2972 101.34 10.3212 101.26 10.3212H100.744C100.264 10.3212 99.8845 10.4612 99.6045 10.7412C99.3245 11.0212 99.1845 11.4012 99.1845 11.8812V15.6012C99.1845 15.6812 99.1565 15.7452 99.1005 15.7932C99.0525 15.8412 98.9885 15.8652 98.9085 15.8652H98.7165Z" fill="black"/>
</svg>
